<?xml version="1.0" encoding="UTF-8"?><svg id="Layer_1" xmlns="http://www.w3.org/2000/svg" viewBox="0 0 481.89 226.77"><defs><style>.cls-1{fill:#004040;}.cls-2{fill:#00b58c;}</style></defs><g><path class="cls-1" d="M228.78,205.08l-8.5-11.16v11.16h-6.16v-25.27h6.16v11.09l8.42-11.09h7.24l-9.79,12.38,10.15,12.89h-7.52Z"/><path class="cls-1" d="M240.87,204.1c-1.57-.84-2.81-2.04-3.71-3.6s-1.35-3.38-1.35-5.47,.46-3.88,1.37-5.45c.91-1.57,2.16-2.78,3.74-3.62,1.58-.84,3.36-1.26,5.33-1.26s3.74,.42,5.33,1.26c1.58,.84,2.83,2.05,3.74,3.62,.91,1.57,1.37,3.39,1.37,5.45s-.46,3.88-1.39,5.45c-.92,1.57-2.18,2.78-3.78,3.62-1.6,.84-3.38,1.26-5.35,1.26s-3.74-.42-5.31-1.26Zm8.32-5.36c.83-.86,1.24-2.1,1.24-3.71s-.4-2.84-1.21-3.71c-.8-.86-1.79-1.3-2.97-1.3s-2.2,.43-2.99,1.28c-.79,.85-1.19,2.09-1.19,3.73s.39,2.84,1.17,3.71c.78,.86,1.76,1.3,2.93,1.3s2.18-.43,3.01-1.3Z"/><path class="cls-1" d="M268.52,185.73c1.08-.64,2.28-.95,3.6-.95v6.52h-1.69c-1.54,0-2.69,.33-3.46,.99-.77,.66-1.15,1.82-1.15,3.47v9.32h-6.16v-20.09h6.16v3.35c.72-1.1,1.62-1.97,2.7-2.61Z"/><path class="cls-1" d="M293.62,196.51h-13.93c.1,1.25,.5,2.2,1.21,2.86,.71,.66,1.58,.99,2.61,.99,1.54,0,2.6-.65,3.2-1.94h6.55c-.34,1.32-.94,2.51-1.82,3.56-.88,1.06-1.97,1.88-3.29,2.48-1.32,.6-2.8,.9-4.43,.9-1.97,0-3.72-.42-5.26-1.26-1.54-.84-2.74-2.04-3.6-3.6-.86-1.56-1.3-3.38-1.3-5.47s.43-3.91,1.28-5.47c.85-1.56,2.05-2.76,3.58-3.6,1.54-.84,3.3-1.26,5.29-1.26s3.67,.41,5.18,1.22c1.51,.82,2.69,1.98,3.55,3.49,.85,1.51,1.28,3.28,1.28,5.29,0,.58-.04,1.18-.11,1.8Zm-6.19-3.42c0-1.06-.36-1.9-1.08-2.52-.72-.62-1.62-.94-2.7-.94s-1.9,.3-2.61,.9c-.71,.6-1.15,1.45-1.31,2.56h7.7Z"/><path class="cls-1" d="M296.77,189.56c.78-1.56,1.84-2.76,3.19-3.6,1.34-.84,2.84-1.26,4.5-1.26,1.42,0,2.66,.29,3.73,.86,1.07,.58,1.89,1.33,2.47,2.27v-2.84h6.16v20.09h-6.16v-2.84c-.6,.94-1.43,1.69-2.5,2.27-1.07,.58-2.31,.86-3.73,.86-1.63,0-3.12-.43-4.46-1.28-1.34-.85-2.41-2.06-3.19-3.64-.78-1.57-1.17-3.39-1.17-5.45s.39-3.88,1.17-5.44Zm12.6,1.84c-.85-.89-1.89-1.33-3.11-1.33s-2.26,.44-3.11,1.31c-.85,.88-1.28,2.08-1.28,3.62s.43,2.75,1.28,3.65c.85,.9,1.89,1.35,3.11,1.35s2.26-.44,3.11-1.33c.85-.89,1.28-2.1,1.28-3.64s-.43-2.75-1.28-3.64Z"/></g><path class="cls-2" d="M356.65,92c4.28-.06,7.7-3.57,7.65-7.85-.05-4.2-3.45-7.59-7.65-7.64h-12.66c-4.28-.02-7.77,3.43-7.79,7.71-.02,4.24,3.37,7.71,7.61,7.79h12.84Z"/><path class="cls-2" d="M356.65,45.52c4.28,.06,7.7,3.57,7.65,7.85-.05,4.2-3.45,7.59-7.65,7.64h-12.66c-4.28,.02-7.77-3.43-7.79-7.71-.02-4.24,3.37-7.71,7.61-7.79h12.84Z"/><path class="cls-2" d="M437.41,92c4.28-.06,7.7-3.57,7.65-7.85-.06-4.2-3.45-7.59-7.65-7.65h-12.66c-4.28-.02-7.76,3.43-7.79,7.71-.02,4.24,3.37,7.71,7.61,7.79h12.84Z"/><path class="cls-2" d="M437.41,45.52c4.28,.06,7.7,3.57,7.65,7.85-.05,4.2-3.45,7.59-7.65,7.64h-12.66c-4.28,.02-7.76-3.43-7.78-7.71-.02-4.24,3.37-7.7,7.61-7.78h12.83Z"/><path class="cls-2" d="M398.37,68.78c0,4.27-3.47,7.74-7.74,7.73-4.27,0-7.74-3.47-7.73-7.74,0-4.27,3.46-7.73,7.73-7.73,4.27,0,7.74,3.47,7.74,7.74"/><path class="cls-2" d="M367.38,34.79c.06,4.28,3.57,7.7,7.85,7.65,4.2-.05,7.59-3.45,7.64-7.65v-12.66c.02-4.28-3.43-7.76-7.71-7.79-4.24-.02-7.71,3.37-7.79,7.61v12.84Z"/><path class="cls-2" d="M413.85,34.79c-.06,4.28-3.57,7.7-7.85,7.65-4.2-.05-7.59-3.45-7.64-7.65v-12.66c-.02-4.28,3.43-7.76,7.71-7.79,4.24-.02,7.71,3.37,7.79,7.61v12.84Z"/><path class="cls-2" d="M367.38,115.56c.06,4.28,3.57,7.7,7.85,7.65,4.2-.05,7.59-3.45,7.64-7.65v-12.66c.02-4.28-3.43-7.76-7.71-7.79-4.24-.02-7.71,3.37-7.79,7.61v12.84Z"/><path class="cls-2" d="M413.85,115.56c-.06,4.28-3.57,7.7-7.85,7.65-4.2-.05-7.59-3.45-7.64-7.65v-12.66c-.02-4.28,3.43-7.76,7.71-7.79,4.24-.02,7.71,3.37,7.79,7.61v12.84Z"/><path class="cls-1" d="M80.54,76.47c21.2,0,36.28,12.21,40.47,31.37h-25.27c-2.99-6.35-8.62-9.82-15.57-9.82-10.78,0-17.84,8.38-17.84,21.31s7.07,21.43,17.84,21.43c6.94,0,12.57-3.47,15.57-9.82h25.27c-4.19,19.16-19.28,31.37-40.47,31.37-25.39,0-42.03-17.72-42.03-42.99s16.64-42.87,42.03-42.87"/><path class="cls-1" d="M162.15,114.37c7.19,0,10.11-3.66,10.11-9.26s-2.92-9.38-10.11-9.38h-9.51v18.65h9.51Zm2.31,19.01h-11.82v29.01h-23.89V76.47h35.71c21.33,0,32.17,12.07,32.17,28.64,0,14.99-10.36,28.27-32.17,28.27"/><polygon class="cls-1" points="257.41 127.9 228.28 127.9 228.28 162.39 204.39 162.39 204.39 76.47 228.28 76.47 228.28 108.76 257.41 108.76 257.41 76.47 281.29 76.47 281.29 162.39 257.41 162.39 257.41 127.9"/><rect class="cls-1" x="292.84" y="76.47" width="23.89" height="85.92"/></svg>